<?xml version="1.0" encoding="UTF-8"?>
<svg xmlns="http://www.w3.org/2000/svg" xmlns:xlink="http://www.w3.org/1999/xlink" viewBox="0 0 32 32" width="32px" height="32px">
<g id="surface96030168">
<path style=" stroke:none;fill-rule:nonzero;fill:rgb(40.000001%,40.000001%,40.000001%);fill-opacity:1;" d="M 20.480469 7.039062 L 23.679688 7.039062 C 24.035156 7.039062 24.320312 6.753906 24.320312 6.398438 L 24.320312 2.089844 C 24.320312 1.753906 24.0625 1.472656 23.726562 1.449219 C 22.710938 1.378906 20.71875 1.28125 19.289062 1.28125 C 15.359375 1.28125 12.800781 3.636719 12.800781 7.914062 L 12.800781 12.160156 L 8.320312 12.160156 C 7.964844 12.160156 7.679688 12.445312 7.679688 12.800781 L 7.679688 17.28125 C 7.679688 17.632812 7.964844 17.921875 8.320312 17.921875 L 12.800781 17.921875 L 12.800781 30.078125 C 12.800781 30.433594 13.085938 30.71875 13.441406 30.71875 L 17.921875 30.71875 C 18.273438 30.71875 18.558594 30.433594 18.558594 30.078125 L 18.558594 17.921875 L 23.183594 17.921875 C 23.507812 17.921875 23.78125 17.675781 23.816406 17.351562 L 24.316406 12.871094 C 24.359375 12.492188 24.0625 12.160156 23.679688 12.160156 L 18.558594 12.160156 L 18.558594 8.960938 C 18.558594 7.898438 19.417969 7.039062 20.480469 7.039062 Z M 20.480469 7.039062 "/>
</g>
</svg>
