<?xml version="1.0" encoding="UTF-8"?>
<svg xmlns="http://www.w3.org/2000/svg" xmlns:xlink="http://www.w3.org/1999/xlink" viewBox="0 0 34 34" width="34px" height="34px">
<defs>
<radialGradient id="radial0" gradientUnits="userSpaceOnUse" cx="69.445" cy="150.625427" fx="69.445" fy="150.625427" r="160.888077" gradientTransform="matrix(0.197674,0,0,0.197674,0,0)">
<stop offset="0" style="stop-color:rgb(40.000001%,40.000001%,40.000001%);stop-opacity:1;"/>
<stop offset="0.328" style="stop-color:rgb(40.000001%,40.000001%,40.000001%);stop-opacity:1;"/>
<stop offset="0.348" style="stop-color:rgb(40.000001%,40.000001%,40.000001%);stop-opacity:1;"/>
<stop offset="0.504" style="stop-color:rgb(40.000001%,40.000001%,40.000001%);stop-opacity:1;"/>
<stop offset="0.643" style="stop-color:rgb(40.000001%,40.000001%,40.000001%);stop-opacity:1;"/>
<stop offset="0.761" style="stop-color:rgb(40.000001%,40.000001%,40.000001%);stop-opacity:1;"/>
<stop offset="0.841" style="stop-color:rgb(40.000001%,40.000001%,40.000001%);stop-opacity:1;"/>
</radialGradient>
<radialGradient id="radial1" gradientUnits="userSpaceOnUse" cx="42.23317" cy="19.852751" fx="42.23317" fy="19.852751" r="106.829918" gradientTransform="matrix(0.197674,0,0,0.197674,0,0)">
<stop offset="0" style="stop-color:rgb(40.000001%,40.000001%,40.000001%);stop-opacity:1;"/>
<stop offset="0.999" style="stop-color:rgb(40.000001%,40.000001%,40.000001%);stop-opacity:0;"/>
</radialGradient>
</defs>
<g id="surface95770872">
<path style=" stroke:none;fill-rule:nonzero;fill:url(#radial0);" d="M 24.09375 29.742188 L 9.929688 29.757812 C 6.8125 29.757812 4.261719 27.210938 4.257812 24.09375 L 4.242188 9.929688 C 4.238281 6.8125 6.789062 4.261719 9.902344 4.257812 L 24.070312 4.242188 C 27.1875 4.238281 29.738281 6.789062 29.742188 9.902344 L 29.757812 24.070312 C 29.761719 27.1875 27.210938 29.738281 24.09375 29.742188 Z M 24.09375 29.742188 "/>
<path style=" stroke:none;fill-rule:nonzero;fill:url(#radial1);" d="M 24.09375 29.742188 L 9.929688 29.757812 C 6.8125 29.757812 4.261719 27.210938 4.257812 24.09375 L 4.242188 9.929688 C 4.238281 6.8125 6.789062 4.261719 9.902344 4.257812 L 24.070312 4.242188 C 27.1875 4.238281 29.738281 6.789062 29.742188 9.902344 L 29.757812 24.070312 C 29.761719 27.1875 27.210938 29.738281 24.09375 29.742188 Z M 24.09375 29.742188 "/>
<path style=" stroke:none;fill-rule:nonzero;fill:rgb(100%,100%,100%);fill-opacity:1;" d="M 17 21.957031 C 14.265625 21.957031 12.042969 19.734375 12.042969 17 C 12.042969 14.265625 14.265625 12.042969 17 12.042969 C 19.734375 12.042969 21.957031 14.265625 21.957031 17 C 21.957031 19.734375 19.734375 21.957031 17 21.957031 Z M 17 13.457031 C 15.046875 13.457031 13.457031 15.046875 13.457031 17 C 13.457031 18.953125 15.046875 20.542969 17 20.542969 C 18.953125 20.542969 20.542969 18.953125 20.542969 17 C 20.542969 15.046875 18.953125 13.457031 17 13.457031 Z M 17 13.457031 "/>
<path style=" stroke:none;fill-rule:nonzero;fill:rgb(100%,100%,100%);fill-opacity:1;" d="M 23.375 11.6875 C 23.375 12.273438 22.898438 12.75 22.3125 12.75 C 21.726562 12.75 21.25 12.273438 21.25 11.6875 C 21.25 11.101562 21.726562 10.625 22.3125 10.625 C 22.898438 10.625 23.375 11.101562 23.375 11.6875 Z M 23.375 11.6875 "/>
<path style=" stroke:none;fill-rule:nonzero;fill:rgb(100%,100%,100%);fill-opacity:1;" d="M 21.25 26.207031 L 12.75 26.207031 C 10.015625 26.207031 7.792969 23.984375 7.792969 21.25 L 7.792969 12.75 C 7.792969 10.015625 10.015625 7.792969 12.75 7.792969 L 21.25 7.792969 C 23.984375 7.792969 26.207031 10.015625 26.207031 12.75 L 26.207031 21.25 C 26.207031 23.984375 23.984375 26.207031 21.25 26.207031 Z M 12.75 9.207031 C 10.796875 9.207031 9.207031 10.796875 9.207031 12.75 L 9.207031 21.25 C 9.207031 23.203125 10.796875 24.792969 12.75 24.792969 L 21.25 24.792969 C 23.203125 24.792969 24.792969 23.203125 24.792969 21.25 L 24.792969 12.75 C 24.792969 10.796875 23.203125 9.207031 21.25 9.207031 Z M 12.75 9.207031 "/>
</g>
</svg>
