<?xml version="1.0" encoding="UTF-8"?>
<svg xmlns="http://www.w3.org/2000/svg" xmlns:xlink="http://www.w3.org/1999/xlink" viewBox="0 0 34 34" width="34px" height="34px">
<g id="surface96006448">
<path style=" stroke:none;fill-rule:nonzero;fill:rgb(40.000001%,40.000001%,40.000001%);fill-opacity:1;" d="M 5.964844 9.917969 L 6 9.917969 C 7.976562 9.917969 9.207031 8.5 9.207031 6.730469 C 9.171875 4.917969 7.976562 3.542969 6.039062 3.542969 C 4.101562 3.542969 2.832031 4.917969 2.832031 6.730469 C 2.832031 8.5 4.0625 9.917969 5.964844 9.917969 Z M 2.832031 12.042969 L 9.207031 12.042969 L 9.207031 30.457031 L 2.832031 30.457031 Z M 31.167969 18.769531 C 31.167969 15.054688 28.152344 12.042969 24.4375 12.042969 C 22.273438 12.042969 20.355469 13.066406 19.125 14.652344 L 19.125 12.042969 L 12.75 12.042969 L 12.75 30.457031 L 19.125 30.457031 L 19.125 19.832031 C 19.125 18.269531 20.394531 17 21.957031 17 C 23.523438 17 24.792969 18.269531 24.792969 19.832031 L 24.792969 30.457031 L 31.167969 30.457031 C 31.167969 30.457031 31.167969 19.800781 31.167969 18.769531 Z M 31.167969 18.769531 "/>
</g>
</svg>
