<?xml version="1.0" encoding="UTF-8"?>
<svg xmlns="http://www.w3.org/2000/svg" xmlns:xlink="http://www.w3.org/1999/xlink" viewBox="0 0 32 32" width="32px" height="32px">
<g id="surface95642399">
<path style=" stroke:none;fill-rule:nonzero;fill:rgb(40.000001%,40.000001%,40.000001%);fill-opacity:1;" d="M 16.015625 2.667969 C 8.675781 2.667969 2.699219 8.636719 2.695312 15.980469 C 2.695312 18.324219 3.308594 20.617188 4.472656 22.636719 L 2.667969 29.332031 L 9.644531 27.683594 C 11.589844 28.746094 13.777344 29.304688 16.007812 29.304688 L 16.011719 29.304688 C 23.351562 29.304688 29.328125 23.332031 29.332031 15.992188 C 29.332031 12.433594 27.949219 9.085938 25.433594 6.570312 C 22.921875 4.054688 19.578125 2.667969 16.015625 2.667969 Z M 16.011719 5.332031 C 18.859375 5.335938 21.539062 6.445312 23.550781 8.457031 C 25.5625 10.46875 26.667969 13.144531 26.664062 15.988281 C 26.660156 21.863281 21.886719 26.636719 16.011719 26.636719 C 14.234375 26.636719 12.472656 26.191406 10.921875 25.34375 L 10.023438 24.855469 L 9.03125 25.089844 L 6.40625 25.707031 L 7.046875 23.328125 L 7.335938 22.261719 L 6.785156 21.300781 C 5.851562 19.691406 5.359375 17.851562 5.363281 15.980469 C 5.363281 10.109375 10.140625 5.332031 16.011719 5.332031 Z M 11.300781 9.832031 C 11.078125 9.832031 10.71875 9.917969 10.414062 10.25 C 10.109375 10.582031 9.246094 11.386719 9.246094 13.023438 C 9.246094 14.660156 10.441406 16.242188 10.605469 16.464844 C 10.773438 16.6875 12.910156 20.152344 16.292969 21.488281 C 19.101562 22.59375 19.671875 22.375 20.285156 22.320312 C 20.894531 22.265625 22.253906 21.515625 22.53125 20.738281 C 22.808594 19.960938 22.808594 19.292969 22.726562 19.15625 C 22.644531 19.019531 22.421875 18.933594 22.089844 18.769531 C 21.757812 18.601562 20.121094 17.796875 19.816406 17.6875 C 19.511719 17.578125 19.285156 17.519531 19.066406 17.855469 C 18.84375 18.1875 18.207031 18.933594 18.011719 19.15625 C 17.816406 19.378906 17.625 19.410156 17.292969 19.242188 C 16.957031 19.074219 15.886719 18.722656 14.613281 17.589844 C 13.625 16.707031 12.957031 15.621094 12.761719 15.285156 C 12.570312 14.953125 12.746094 14.773438 12.910156 14.605469 C 13.0625 14.457031 13.242188 14.21875 13.410156 14.023438 C 13.574219 13.828125 13.632812 13.691406 13.742188 13.46875 C 13.851562 13.246094 13.796875 13.050781 13.714844 12.886719 C 13.632812 12.71875 12.984375 11.074219 12.6875 10.417969 C 12.4375 9.863281 12.175781 9.851562 11.9375 9.839844 C 11.746094 9.832031 11.523438 9.832031 11.300781 9.832031 Z M 11.300781 9.832031 "/>
</g>
</svg>
